<?xml version="1.0" encoding="UTF-8"?>
<svg xmlns="http://www.w3.org/2000/svg" xmlns:xlink="http://www.w3.org/1999/xlink" width="214.26pt" height="37.54pt" viewBox="0 0 214.26 37.54" version="1.1">
<defs>
<clipPath id="clip1">
  <path d="M 0 0 L 214.261719 0 L 214.261719 37.539063 L 0 37.539063 Z M 0 0 "/>
</clipPath>
</defs>
<g id="surface1">
<g clip-path="url(#clip1)" clip-rule="nonzero">
<path style=" stroke:none;fill-rule:nonzero;fill:rgb(0.799561%,41.19873%,59.599304%);fill-opacity:1;" d="M 93.933594 13.441406 C 91.3125 11.964844 89.835938 10.65625 89.835938 9.015625 C 89.835938 7.375 91.476563 5.898438 94.425781 5.898438 C 96.558594 5.898438 98.6875 6.71875 100.164063 7.539063 L 101.3125 2.621094 L 101.3125 2.457031 C 100.164063 1.800781 98.03125 0.820313 94.753906 0.820313 C 87.539063 0.820313 83.277344 4.097656 83.277344 9.835938 C 83.277344 13.113281 85.902344 15.570313 88.851563 17.375 C 91.476563 18.851563 92.621094 19.671875 92.621094 21.308594 C 92.621094 23.441406 90.492188 24.753906 87.867188 24.753906 C 85.410156 24.753906 82.785156 23.441406 81.3125 22.457031 L 80 27.703125 C 81.3125 28.523438 83.933594 29.671875 87.378906 29.671875 C 94.261719 29.671875 99.179688 27.046875 99.179688 20.324219 C 99.34375 17.375 97.378906 15.242188 93.933594 13.441406 Z M 13.933594 13.441406 C 11.3125 11.964844 9.835938 10.65625 9.835938 9.015625 C 9.835938 7.375 11.476563 5.898438 14.425781 5.898438 C 16.558594 5.898438 18.6875 6.71875 20.164063 7.539063 L 21.3125 2.621094 L 21.3125 2.457031 C 20.164063 1.800781 18.03125 0.820313 14.753906 0.820313 C 7.542969 0.820313 3.277344 4.097656 3.277344 9.835938 C 3.277344 13.113281 5.902344 15.570313 8.851563 17.375 C 11.476563 18.851563 12.621094 19.671875 12.621094 21.308594 C 12.621094 23.441406 10.492188 24.753906 7.867188 24.753906 C 5.410156 24.753906 2.785156 23.441406 1.3125 22.457031 L 0 27.703125 C 1.3125 28.523438 3.933594 29.671875 7.375 29.671875 C 14.261719 29.671875 19.179688 27.046875 19.179688 20.324219 C 19.34375 17.375 17.214844 15.242188 13.933594 13.441406 Z M 164.917969 8.851563 L 158.6875 8.851563 L 156.066406 21.472656 C 155.738281 22.949219 155.574219 23.933594 155.574219 25.082031 C 155.574219 27.703125 157.378906 29.507813 161.148438 29.507813 C 162.460938 29.507813 163.933594 29.34375 164.917969 29.015625 L 165.574219 24.589844 C 165.082031 24.753906 164.425781 24.753906 163.933594 24.753906 C 162.621094 24.753906 162.132813 24.097656 162.132813 23.113281 C 162.132813 22.457031 162.296875 21.636719 162.460938 20.816406 Z M 162.785156 6.390625 C 164.753906 6.390625 166.558594 5.246094 166.558594 3.113281 C 166.558594 1.472656 165.410156 0.328125 163.441406 0.328125 C 161.476563 0.328125 159.835938 1.800781 159.835938 3.605469 C 159.835938 5.246094 160.984375 6.390625 162.785156 6.390625 Z M 55.246094 8.851563 L 49.015625 8.851563 L 46.394531 21.472656 C 46.066406 22.949219 45.902344 23.933594 45.902344 25.082031 C 45.902344 27.703125 47.707031 29.507813 51.476563 29.507813 C 52.785156 29.507813 54.261719 29.34375 55.246094 29.015625 L 55.902344 24.589844 C 55.410156 24.753906 54.753906 24.753906 54.261719 24.753906 C 52.949219 24.753906 52.460938 24.097656 52.460938 23.113281 C 52.460938 22.457031 52.621094 21.636719 52.785156 20.816406 Z M 52.949219 6.390625 C 54.917969 6.390625 56.722656 5.246094 56.722656 3.113281 C 56.722656 1.472656 55.574219 0.328125 53.605469 0.328125 C 51.640625 0.328125 50 1.800781 50 3.605469 C 50 5.246094 51.148438 6.390625 52.949219 6.390625 Z M 192.132813 29.34375 L 195.082031 15.570313 C 195.574219 13.113281 195.902344 10.816406 196.230469 9.015625 L 201.804688 9.015625 L 201.476563 12.128906 L 201.640625 12.128906 C 203.605469 9.671875 206.066406 8.523438 208.851563 8.523438 C 212.460938 8.523438 214.261719 10.492188 214.261719 13.769531 C 214.261719 14.753906 214.097656 16.226563 213.769531 17.375 L 211.3125 29.34375 L 204.917969 29.34375 L 207.378906 17.703125 C 207.539063 17.046875 207.539063 16.226563 207.539063 15.410156 C 207.539063 14.097656 207.050781 13.277344 205.574219 13.277344 C 203.605469 13.277344 201.3125 15.570313 200.492188 19.835938 L 198.523438 29.34375 Z M 151.804688 3.605469 L 150.65625 9.015625 L 155.246094 9.015625 L 154.261719 13.277344 L 149.671875 13.277344 L 148.03125 20.980469 C 147.867188 21.800781 147.703125 22.621094 147.703125 23.277344 C 147.703125 24.425781 148.195313 24.917969 149.507813 24.917969 C 150 24.917969 150.65625 24.917969 151.148438 24.753906 L 150.492188 29.179688 C 149.507813 29.507813 148.03125 29.671875 146.722656 29.671875 C 142.949219 29.671875 141.148438 27.867188 141.148438 25.242188 C 141.148438 24.261719 141.3125 23.113281 141.640625 21.636719 L 143.441406 13.113281 L 140.65625 13.113281 L 141.640625 8.851563 L 144.425781 8.851563 L 145.246094 5.082031 Z M 131.476563 13.441406 C 130.984375 13.277344 130.492188 13.277344 129.835938 13.277344 C 125.082031 13.277344 122.949219 17.867188 122.949219 21.964844 C 122.949219 23.933594 123.605469 25.242188 125.410156 25.242188 C 127.214844 25.242188 129.507813 23.113281 130.328125 18.523438 Z M 129.507813 29.34375 C 129.507813 28.195313 129.671875 26.882813 129.835938 25.570313 L 129.671875 25.570313 C 127.703125 28.6875 125.082031 29.835938 122.621094 29.835938 C 118.851563 29.835938 116.394531 27.046875 116.394531 23.113281 C 116.394531 15.410156 120 9.015625 131.476563 9.015625 C 133.933594 9.015625 136.722656 9.507813 138.359375 10 L 136.066406 20.65625 C 135.574219 23.277344 135.082031 27.210938 135.082031 29.671875 L 129.507813 29.671875 Z M 113.441406 3.605469 L 112.296875 9.015625 L 116.886719 9.015625 L 115.902344 13.277344 L 111.476563 13.277344 L 109.835938 20.980469 C 109.671875 21.800781 109.507813 22.621094 109.507813 23.277344 C 109.507813 24.425781 110 24.917969 111.3125 24.917969 C 111.804688 24.917969 112.460938 24.917969 112.949219 24.753906 L 112.296875 29.179688 C 111.476563 29.671875 109.835938 29.835938 108.523438 29.835938 C 104.753906 29.835938 102.949219 28.03125 102.949219 25.410156 C 102.949219 24.425781 103.113281 23.277344 103.441406 21.800781 L 105.246094 13.277344 L 102.460938 13.277344 L 103.441406 9.015625 L 106.230469 9.015625 L 107.050781 5.246094 Z M 64.589844 24.589844 C 65.246094 25.082031 66.066406 25.410156 67.214844 25.410156 C 70.820313 25.410156 73.113281 20.164063 73.113281 16.390625 C 73.113281 14.917969 72.460938 13.277344 70.65625 13.277344 C 68.523438 13.277344 66.394531 15.570313 65.738281 19.179688 Z M 55.574219 37.539063 L 60 16.554688 C 60.492188 14.261719 60.984375 10.980469 61.3125 8.851563 L 66.886719 8.851563 L 66.558594 11.964844 L 66.722656 11.964844 C 68.359375 9.835938 70.820313 8.523438 73.441406 8.523438 C 78.03125 8.523438 80 11.964844 80 15.898438 C 80 22.949219 75.082031 29.835938 67.703125 29.835938 C 66.066406 29.835938 64.753906 29.507813 63.933594 29.015625 L 63.769531 29.015625 L 61.96875 37.539063 Z M 21.476563 29.34375 L 27.539063 0 L 33.933594 0 L 31.476563 11.472656 L 31.640625 11.472656 C 33.277344 9.671875 35.574219 8.359375 38.359375 8.359375 C 41.640625 8.359375 43.605469 10.324219 43.605469 13.605469 C 43.605469 14.589844 43.441406 16.0625 43.113281 17.375 L 40.65625 29.179688 L 34.261719 29.179688 L 36.722656 17.703125 C 36.886719 16.882813 37.050781 15.898438 37.050781 15.082031 C 37.050781 13.769531 36.558594 12.949219 35.082031 12.949219 C 33.113281 12.949219 30.984375 15.242188 30.164063 19.015625 L 28.03125 29.015625 L 21.476563 29.015625 L 21.476563 29.34375 "/>
</g>
<path style=" stroke:none;fill-rule:nonzero;fill:rgb(39.199829%,74.099731%,39.199829%);fill-opacity:1;" d="M 179.34375 14.261719 C 176.886719 14.261719 174.917969 16.226563 174.917969 18.6875 C 174.917969 21.144531 176.886719 23.113281 179.34375 23.113281 C 181.804688 23.113281 183.769531 21.144531 183.769531 18.6875 C 183.605469 16.226563 181.640625 14.261719 179.34375 14.261719 Z M 181.3125 31.800781 L 177.378906 31.800781 L 176.886719 28.359375 C 176.066406 28.195313 175.246094 27.703125 174.425781 27.375 L 171.640625 29.507813 L 168.851563 26.71875 L 170.984375 23.933594 C 170.492188 23.113281 170.164063 22.292969 170 21.472656 L 166.558594 20.980469 L 166.558594 16.71875 L 170 16.226563 C 170.164063 15.410156 170.65625 14.425781 170.984375 13.769531 L 168.851563 10.980469 L 171.640625 8.195313 L 174.425781 10.324219 C 175.246094 9.835938 176.066406 9.507813 176.886719 9.34375 L 177.378906 5.898438 L 181.3125 5.898438 L 181.804688 9.34375 C 182.621094 9.507813 183.441406 10 184.261719 10.324219 L 187.050781 8.195313 L 189.835938 10.980469 L 187.703125 13.769531 C 188.195313 14.589844 188.523438 15.410156 188.6875 16.226563 L 192.132813 16.71875 L 192.132813 20.65625 L 188.6875 21.144531 C 188.523438 21.964844 188.03125 22.949219 187.703125 23.605469 L 189.835938 26.390625 L 187.050781 29.179688 L 184.261719 27.046875 C 183.441406 27.539063 182.621094 27.867188 181.804688 28.03125 L 181.3125 31.800781 "/>
</g>
</svg>
